<svg width="482" height="117" viewBox="0 0 482 117" fill="none" xmlns="http://www.w3.org/2000/svg">
<rect x="8.5" y="8.5" width="466" height="103" fill="#ECF9FF" stroke="#33C1FF" stroke-width="3"/>
<path d="M32.4 95V27.5H46.08V49.19C48.12 47.69 50.37 46.55 52.83 45.77C55.29 44.99 57.96 44.6 60.84 44.6C64.26 44.6 67.47 45.29 70.47 46.67C73.47 47.99 76.08 49.82 78.3 52.16C80.52 54.44 82.26 57.14 83.52 60.26C84.84 63.32 85.5 66.62 85.5 70.16C85.5 73.76 84.84 77.12 83.52 80.24C82.26 83.36 80.52 86.09 78.3 88.43C76.08 90.71 73.47 92.54 70.47 93.92C67.47 95.24 64.26 95.9 60.84 95.9C57.96 95.9 55.29 95.51 52.83 94.73C50.37 93.89 48.12 92.72 46.08 91.22V95H32.4ZM71.55 70.16C71.55 68.36 71.22 66.65 70.56 65.03C69.9 63.35 68.97 61.91 67.77 60.71C66.63 59.51 65.31 58.55 63.81 57.83C62.31 57.11 60.69 56.75 58.95 56.75C57.27 56.75 55.65 57.11 54.09 57.83C52.59 58.55 51.24 59.51 50.04 60.71C48.9 61.91 48 63.35 47.34 65.03C46.68 66.65 46.35 68.36 46.35 70.16C46.35 72.02 46.68 73.79 47.34 75.47C48 77.09 48.9 78.53 50.04 79.79C51.18 80.99 52.5 81.95 54 82.67C55.56 83.39 57.21 83.75 58.95 83.75C60.69 83.75 62.31 83.39 63.81 82.67C65.37 81.95 66.72 80.99 67.86 79.79C69 78.53 69.9 77.09 70.56 75.47C71.22 73.79 71.55 72.02 71.55 70.16ZM145.38 45.5V95H131.7V89.51C129.36 91.49 126.66 93.05 123.6 94.19C120.6 95.33 117.36 95.9 113.88 95.9C110.88 95.9 108.15 95.42 105.69 94.46C103.23 93.5 101.13 92.12 99.3902 90.32C97.6502 88.52 96.3002 86.36 95.3402 83.84C94.4402 81.26 93.9902 78.41 93.9902 75.29V45.5H107.67V72.32C107.67 75.74 108.69 78.47 110.73 80.51C112.77 82.55 115.47 83.57 118.83 83.57C120.51 83.57 122.13 83.24 123.69 82.58C125.25 81.86 126.6 80.9 127.74 79.7C128.94 78.44 129.9 77.03 130.62 75.47C131.34 73.85 131.7 72.14 131.7 70.34V45.5H145.38ZM170.46 95.9C169.92 95.9 169.08 95.87 167.94 95.81C166.86 95.81 165.6 95.75 164.16 95.63C162.78 95.51 161.28 95.33 159.66 95.09C158.1 94.85 156.57 94.55 155.07 94.19V81.41C156.75 82.31 158.94 83.06 161.64 83.66C164.4 84.26 167.19 84.56 170.01 84.56C172.59 84.56 174.63 84.29 176.13 83.75C177.63 83.15 178.38 82.28 178.38 81.14C178.38 80.3 178.02 79.58 177.3 78.98C176.58 78.38 175.65 77.87 174.51 77.45C173.43 76.97 172.26 76.55 171 76.19C169.74 75.77 168.57 75.35 167.49 74.93C164.85 73.91 162.69 72.83 161.01 71.69C159.39 70.49 158.13 69.29 157.23 68.09C156.33 66.89 155.7 65.69 155.34 64.49C155.04 63.23 154.89 62.03 154.89 60.89C154.89 58.55 155.4 56.39 156.42 54.41C157.5 52.43 158.97 50.72 160.83 49.28C162.69 47.78 164.91 46.64 167.49 45.86C170.07 45.02 172.92 44.6 176.04 44.6C179.04 44.6 181.83 44.84 184.41 45.32C187.05 45.74 189.21 46.28 190.89 46.94V59.99C190.05 59.45 189.03 59 187.83 58.64C186.69 58.28 185.49 57.98 184.23 57.74C183.03 57.5 181.8 57.35 180.54 57.29C179.34 57.17 178.23 57.11 177.21 57.11C174.93 57.11 173.28 57.38 172.26 57.92C171.3 58.4 170.76 59 170.64 59.72C170.58 60.2 170.82 60.65 171.36 61.07C171.9 61.43 172.56 61.79 173.34 62.15C174.12 62.45 174.96 62.75 175.86 63.05C176.76 63.29 177.54 63.53 178.2 63.77C181.62 65.03 184.35 66.32 186.39 67.64C188.43 68.9 189.99 70.19 191.07 71.51C192.21 72.77 192.96 74.03 193.32 75.29C193.68 76.55 193.86 77.78 193.86 78.98C193.86 81.5 193.29 83.81 192.15 85.91C191.01 87.95 189.39 89.72 187.29 91.22C185.25 92.72 182.79 93.89 179.91 94.73C177.03 95.51 173.88 95.9 170.46 95.9ZM202.818 95V45.5H216.498V95H202.818ZM201.738 32.9C201.738 30.8 202.488 29 203.988 27.5C205.488 26 207.318 25.25 209.478 25.25C211.638 25.25 213.468 26 214.968 27.5C216.468 29 217.218 30.8 217.218 32.9C217.218 35 216.468 36.8 214.968 38.3C213.468 39.8 211.638 40.55 209.478 40.55C207.318 40.55 205.488 39.8 203.988 38.3C202.488 36.8 201.738 35 201.738 32.9ZM226.726 95V45.5H240.406V50.99C242.686 49.01 245.326 47.45 248.326 46.31C251.386 45.17 254.656 44.6 258.136 44.6C261.136 44.6 263.866 45.08 266.326 46.04C268.786 47 270.886 48.38 272.626 50.18C274.366 51.98 275.716 54.17 276.676 56.75C277.636 59.27 278.116 62.09 278.116 65.21V95H264.436V68.09C264.436 64.67 263.416 61.97 261.376 59.99C259.336 57.95 256.636 56.93 253.276 56.93C251.596 56.93 249.976 57.29 248.416 58.01C246.856 58.67 245.476 59.6 244.276 60.8C243.136 62 242.206 63.41 241.486 65.03C240.766 66.65 240.406 68.36 240.406 70.16V95H226.726ZM301.835 74.84C302.675 77.48 304.145 79.55 306.245 81.05C308.405 82.55 310.955 83.3 313.895 83.3C316.295 83.3 318.605 82.82 320.825 81.86C323.105 80.84 324.845 79.46 326.045 77.72L333.695 87.62C331.175 90.2 328.145 92.24 324.605 93.74C321.065 95.18 317.315 95.9 313.355 95.9C309.695 95.9 306.245 95.24 303.005 93.92C299.825 92.6 297.035 90.77 294.635 88.43C292.235 86.09 290.345 83.36 288.965 80.24C287.645 77.12 286.985 73.76 286.985 70.16C286.985 66.62 287.615 63.32 288.875 60.26C290.195 57.14 291.965 54.44 294.185 52.16C296.465 49.82 299.105 47.99 302.105 46.67C305.165 45.29 308.405 44.6 311.825 44.6C315.065 44.6 318.095 45.17 320.915 46.31C323.735 47.39 326.225 48.95 328.385 50.99C330.545 53.03 332.315 55.46 333.695 58.28C335.135 61.04 336.065 64.1 336.485 67.46C336.605 68.6 336.635 69.86 336.575 71.24C336.575 72.62 336.575 73.82 336.575 74.84H301.835ZM312.635 56.75C310.175 56.75 308.045 57.32 306.245 58.46C304.445 59.54 303.095 61.1 302.195 63.14H322.355C321.455 61.16 320.165 59.6 318.485 58.46C316.865 57.32 314.915 56.75 312.635 56.75ZM359.689 95.9C359.149 95.9 358.309 95.87 357.169 95.81C356.089 95.81 354.829 95.75 353.389 95.63C352.009 95.51 350.509 95.33 348.889 95.09C347.329 94.85 345.799 94.55 344.299 94.19V81.41C345.979 82.31 348.169 83.06 350.869 83.66C353.629 84.26 356.419 84.56 359.239 84.56C361.819 84.56 363.859 84.29 365.359 83.75C366.859 83.15 367.609 82.28 367.609 81.14C367.609 80.3 367.249 79.58 366.529 78.98C365.809 78.38 364.879 77.87 363.739 77.45C362.659 76.97 361.489 76.55 360.229 76.19C358.969 75.77 357.799 75.35 356.719 74.93C354.079 73.91 351.919 72.83 350.239 71.69C348.619 70.49 347.359 69.29 346.459 68.09C345.559 66.89 344.929 65.69 344.569 64.49C344.269 63.23 344.119 62.03 344.119 60.89C344.119 58.55 344.629 56.39 345.649 54.41C346.729 52.43 348.199 50.72 350.059 49.28C351.919 47.78 354.139 46.64 356.719 45.86C359.299 45.02 362.149 44.6 365.269 44.6C368.269 44.6 371.059 44.84 373.639 45.32C376.279 45.74 378.439 46.28 380.119 46.94V59.99C379.279 59.45 378.259 59 377.059 58.64C375.919 58.28 374.719 57.98 373.459 57.74C372.259 57.5 371.029 57.35 369.769 57.29C368.569 57.17 367.459 57.11 366.439 57.11C364.159 57.11 362.509 57.38 361.489 57.92C360.529 58.4 359.989 59 359.869 59.72C359.809 60.2 360.049 60.65 360.589 61.07C361.129 61.43 361.789 61.79 362.569 62.15C363.349 62.45 364.189 62.75 365.089 63.05C365.989 63.29 366.769 63.53 367.429 63.77C370.849 65.03 373.579 66.32 375.619 67.64C377.659 68.9 379.219 70.19 380.299 71.51C381.439 72.77 382.189 74.03 382.549 75.29C382.909 76.55 383.089 77.78 383.089 78.98C383.089 81.5 382.519 83.81 381.379 85.91C380.239 87.95 378.619 89.72 376.519 91.22C374.479 92.72 372.019 93.89 369.139 94.73C366.259 95.51 363.109 95.9 359.689 95.9ZM405.567 95.9C405.027 95.9 404.187 95.87 403.047 95.81C401.967 95.81 400.707 95.75 399.267 95.63C397.887 95.51 396.387 95.33 394.767 95.09C393.207 94.85 391.677 94.55 390.177 94.19V81.41C391.857 82.31 394.047 83.06 396.747 83.66C399.507 84.26 402.297 84.56 405.117 84.56C407.697 84.56 409.737 84.29 411.237 83.75C412.737 83.15 413.487 82.28 413.487 81.14C413.487 80.3 413.127 79.58 412.407 78.98C411.687 78.38 410.757 77.87 409.617 77.45C408.537 76.97 407.367 76.55 406.107 76.19C404.847 75.77 403.677 75.35 402.597 74.93C399.957 73.91 397.797 72.83 396.117 71.69C394.497 70.49 393.237 69.29 392.337 68.09C391.437 66.89 390.807 65.69 390.447 64.49C390.147 63.23 389.997 62.03 389.997 60.89C389.997 58.55 390.507 56.39 391.527 54.41C392.607 52.43 394.077 50.72 395.937 49.28C397.797 47.78 400.017 46.64 402.597 45.86C405.177 45.02 408.027 44.6 411.147 44.6C414.147 44.6 416.937 44.84 419.517 45.32C422.157 45.74 424.317 46.28 425.997 46.94V59.99C425.157 59.45 424.137 59 422.937 58.64C421.797 58.28 420.597 57.98 419.337 57.74C418.137 57.5 416.907 57.35 415.647 57.29C414.447 57.17 413.337 57.11 412.317 57.11C410.037 57.11 408.387 57.38 407.367 57.92C406.407 58.4 405.867 59 405.747 59.72C405.687 60.2 405.927 60.65 406.467 61.07C407.007 61.43 407.667 61.79 408.447 62.15C409.227 62.45 410.067 62.75 410.967 63.05C411.867 63.29 412.647 63.53 413.307 63.77C416.727 65.03 419.457 66.32 421.497 67.64C423.537 68.9 425.097 70.19 426.177 71.51C427.317 72.77 428.067 74.03 428.427 75.29C428.787 76.55 428.967 77.78 428.967 78.98C428.967 81.5 428.397 83.81 427.257 85.91C426.117 87.95 424.497 89.72 422.397 91.22C420.357 92.72 417.897 93.89 415.017 94.73C412.137 95.51 408.987 95.9 405.567 95.9ZM438.015 88.25C438.015 86.15 438.765 84.38 440.265 82.94C441.765 81.44 443.595 80.69 445.755 80.69C447.915 80.69 449.715 81.44 451.155 82.94C452.655 84.38 453.405 86.15 453.405 88.25C453.405 90.35 452.655 92.15 451.155 93.65C449.715 95.15 447.915 95.9 445.755 95.9C443.595 95.9 441.765 95.15 440.265 93.65C438.765 92.15 438.015 90.35 438.015 88.25Z" fill="#33C1FF"/>
<rect x="1.5" y="103.5" width="12" height="12" fill="white" stroke="#33C1FF" stroke-width="3"/>
<rect x="468.5" y="103.5" width="12" height="12" fill="white" stroke="#33C1FF" stroke-width="3"/>
<rect x="1.5" y="1.5" width="12" height="12" fill="white" stroke="#33C1FF" stroke-width="3"/>
<rect x="468.5" y="1.5" width="12" height="12" fill="white" stroke="#33C1FF" stroke-width="3"/>
</svg>
